<svg width="18" height="18" viewBox="0 0 18 18" fill="none" xmlns="http://www.w3.org/2000/svg">
<g clip-path="url(#clip0_603_788)">
<path d="M12.2143 13.5V16.0714C12.2143 16.4124 12.0788 16.7394 11.8377 16.9805C11.5966 17.2216 11.2695 17.3571 10.9285 17.3571H1.92854C1.58754 17.3571 1.26052 17.2216 1.0194 16.9805C0.778281 16.7394 0.642822 16.4124 0.642822 16.0714V1.92854C0.642822 1.58754 0.778281 1.26052 1.0194 1.0194C1.26052 0.778281 1.58754 0.642822 1.92854 0.642822H10.9285C11.2695 0.642822 11.5966 0.778281 11.8377 1.0194C12.0788 1.26052 12.2143 1.58754 12.2143 1.92854V4.49997" stroke="white" stroke-width="1.3" stroke-linecap="round" stroke-linejoin="round"/>
<path d="M8.35706 9H17.3571" stroke="white" stroke-width="1.3" stroke-linecap="round" stroke-linejoin="round"/>
<path d="M14.7856 6.42847L17.3571 8.9999L14.7856 11.5713" stroke="white" stroke-width="1.3" stroke-linecap="round" stroke-linejoin="round"/>
</g>
<defs>
<clipPath id="clip0_603_788">
<rect width="18" height="18" fill="white"/>
</clipPath>
</defs>
</svg>
