<svg width="68" height="68" viewBox="0 0 68 68" fill="none" xmlns="http://www.w3.org/2000/svg">
<path d="M22.6667 19.8333H34M22.6667 31.1667H45.3333M22.6667 42.5H45.3333M14.1667 5.66666H53.8333C56.9629 5.66666 59.5 8.20371 59.5 11.3333V54.2706C59.5 58.1954 55.6067 60.9317 51.9139 59.6023L47.4889 58.0093C46.1062 57.5116 44.5842 57.5704 43.2441 58.1735L36.3254 61.2869C34.8466 61.9524 33.1534 61.9524 31.6746 61.2869L24.7559 58.1735C23.4158 57.5704 21.8938 57.5116 20.5111 58.0093L16.0861 59.6023C12.3933 60.9317 8.5 58.1954 8.5 54.2706V11.3333C8.5 8.20371 11.0371 5.66666 14.1667 5.66666Z" stroke="#E78182" stroke-width="6" stroke-linecap="round"/>
</svg>
