<svg width="101" height="69" viewBox="0 0 101 69" fill="none" xmlns="http://www.w3.org/2000/svg">
<path d="M15.505 45.3513C15.505 45.3513 14.0611 47.1734 13.9506 48.3108C13.8401 49.4482 14.9527 58.7093 17.3909 60.7577C19.8291 62.8062 27.2779 68.1968 49.269 68.3477C71.2602 68.4987 82.4807 61.6688 83.7037 60.3049C84.9268 58.9411 86.4812 52.564 86.5917 47.5561C86.7022 42.5482 47.6041 46.0359 47.6041 46.0359L15.505 45.3513Z" fill="#FBB75A"/>
<path d="M48.8271 57.491C68.3801 57.8684 86.4812 49.6746 86.4812 49.6746L85.9288 53.7715C85.9288 53.7715 71.0471 61.5879 49.1585 61.2105C27.2699 60.8332 14.6134 53.7715 14.6134 53.7715L14.061 50.2029C14.061 50.2029 31.7281 57.1568 48.8271 57.491Z" fill="#F2A05B"/>
<path d="M51.2733 25.6162C42.9408 25.6432 17.8407 26.9801 15.2842 34.2682C12.7276 41.5563 13.059 48.3862 13.5088 48.99C13.9506 49.5991 14.9449 48.548 17.2884 49.1409C20.2868 49.901 20.0659 55.4372 25.5104 56.4237C30.9549 57.4101 31.0654 52.3268 37.2832 52.6287C43.501 52.9305 40.6131 58.6284 48.8351 58.6985C57.2781 58.774 54.1455 53.0599 60.0556 52.5532C65.9025 52.0465 62.8331 58.2457 70.9446 57.4101C79.0562 56.5746 78.1172 48.6881 82.2677 47.8526C85.416 47.2219 85.1478 49.335 86.6391 49.2433C87.8621 49.1679 87.3808 37.605 86.2682 35.0283C85.1556 32.4516 74.7085 25.5408 51.2733 25.6162Z" fill="url(#paint0_radial_106_2438)"/>
<path d="M25.9995 41.8959C20.0894 40.1925 18.1799 38.5807 17.2251 37.7613C16.5623 37.1899 15.5602 36.9635 15 37.4217C14.4476 37.8745 14.7238 38.3705 15.3314 38.861C15.939 39.357 18.6612 42.1978 25.6602 43.7557C31.8149 45.1249 35.8786 45.3136 37.433 45.3513C39.1611 45.3945 39.8791 43.912 37.5987 43.718C34.9869 43.497 32.4461 43.7557 25.9995 41.8959Z" fill="#FDFFFF"/>
<path d="M43.7535 44.2624C42.2385 44.2355 41.6782 44.8177 41.6782 45.2759C41.6782 45.8311 42.3805 46.1384 43.6035 46.1869C44.8266 46.2354 45.5289 45.6802 45.5289 45.3028C45.5367 44.9201 45.1974 44.284 43.7535 44.2624Z" fill="#FDFFFF"/>
<path d="M19.8371 47.858C19.1427 48.3216 19.4347 48.8606 19.7661 49.1409C20.3105 49.5991 21.289 49.6746 21.794 49.4051C22.37 49.1032 22.299 48.5426 21.936 48.1706C21.4705 47.6855 20.5236 47.3944 19.8371 47.858Z" fill="#FCE9CA"/>
<path d="M21.7781 49.8525C20.8233 50.2191 21.2494 51.033 21.7623 51.7015C22.8591 53.1246 23.2063 54.2836 24.4688 54.855C25.7471 55.4318 27.3252 55.0329 27.1753 54.4345C26.9385 53.4804 26.0785 54.2027 25.3368 52.9952C25.029 52.4939 24.3978 51.6907 23.6639 50.6072C23.2378 49.9711 22.7407 49.4805 21.7781 49.8525Z" fill="#FCE9CA"/>
<path d="M44.0138 53.696C43.0748 54.1542 43.6429 55.3132 44.8265 56.2242C46.0101 57.1352 47.675 57.8684 49.4899 57.5395C50.8944 57.2862 50.7839 56.2242 49.8213 55.9223C48.8586 55.6205 47.7145 55.7984 46.6729 54.8604C46.1679 54.4022 45.4578 52.9898 44.0138 53.696Z" fill="#FCE9CA"/>
<path d="M66.3129 52.6987C65.3818 53.1677 66.2576 54.1434 66.8337 54.8173C67.4097 55.4911 69.3113 56.7848 70.4239 56.0194C71.2366 55.4587 69.7058 54.7795 68.9878 54.0464C68.4512 53.4912 67.5517 52.068 66.3129 52.6987Z" fill="#FCE9CA"/>
<path d="M64.7111 50.9414C64.0956 51.2487 64.1903 51.7338 64.4113 52.0034C64.7111 52.3591 65.6738 52.5101 66.2261 52.1813C66.7627 51.8632 66.447 51.3457 66.1551 51.0923C65.8631 50.839 65.1214 50.7366 64.7111 50.9414Z" fill="#FCE9CA"/>
<path d="M68.175 21.3307C68.175 21.3307 62.0756 27.0771 62.4622 28.2199C62.7621 29.1201 64.1824 30.0851 67.2203 30.2252C70.2581 30.3654 72.1598 29.4005 72.5938 28.484C73.1777 27.2658 71.276 23.3845 70.5896 22.6137C69.619 21.5194 68.7431 21.363 68.175 21.3307Z" fill="#EE5B4A"/>
<path d="M80.7842 26.5165L74.2271 32.7912C74.2271 32.7912 74.4243 34.1658 76.397 34.7588C78.4564 35.3733 82.6621 35.411 83.8694 34.2089C85.2424 32.8451 84.6506 30.5002 83.9562 29.0824C83.4196 27.972 82.2834 26.3979 80.7842 26.5165Z" fill="#EE5B4A"/>
<path d="M69.6821 33.6051L63.338 40.2626C63.338 40.2626 63.267 41.9121 66.1313 42.3703C68.4038 42.7315 72.578 42.7477 74.1324 41.8366C75.6869 40.9256 75.5606 39.0928 74.2192 37.1684C72.7516 35.0768 70.5738 33.1092 69.6821 33.6051Z" fill="#EE5B4A"/>
<path d="M53.885 35.2385L45.5762 42.1062C45.5762 42.1062 45.4105 43.4323 47.4621 44.0791C50.0975 44.9147 54.1533 44.8716 56.2128 44.1169C58.0197 43.4538 58.2959 41.3515 57.641 40.0362C57.1044 38.9634 56.3627 38.0524 56.0865 37.5565C55.8103 37.0659 54.8793 35.5404 53.885 35.2385Z" fill="#EE5B4A"/>
<path d="M35.9971 32.9205L28.9192 40.4728C28.9192 40.4728 29.1401 42.2355 31.8387 42.5967C34.1665 42.9094 38.0013 43.0927 39.3348 41.9498C40.6683 40.807 40.7236 37.9069 39.4453 35.8584C38.167 33.8154 37.0544 33.1901 35.9971 32.9205Z" fill="#EE5B4A"/>
<path d="M25.2499 25.7995L24.303 25.5677L17.9905 32.3815C17.9905 32.3815 17.809 33.5836 19.2767 34.2251C20.6655 34.8342 25.0842 35.1361 27.4672 34.3383C29.858 33.5405 29.6844 30.8667 28.0195 28.5703C26.4808 26.441 25.2499 25.7995 25.2499 25.7995Z" fill="#EE5B4A"/>
<path d="M36.8334 20.7701L30.7024 27.9989C30.7024 27.9989 30.9707 28.9369 33.0854 29.3466C35.1606 29.7509 37.875 29.6754 39.2637 28.9423C40.6604 28.2091 41.0312 26.5973 40.3921 24.7268C39.9581 23.4492 38.2774 21.1366 36.8334 20.7701Z" fill="#EE5B4A"/>
<path d="M30.7812 35.5566C29.4635 37.4972 27.6171 40.3758 29.7239 41.3245C31.8307 42.2733 34.9475 40.7531 36.0522 37.9069C37.1569 35.0606 37.3305 33.6375 36.2731 33.0284C35.2237 32.43 32.5014 33.0176 30.7812 35.5566Z" fill="#FD6F42"/>
<path d="M23.6324 25.3467C22.1331 25.4114 20.413 26.9962 19.5529 28.5541C18.6928 30.112 17.6907 32.0473 18.0537 32.6726C18.4166 33.2979 20.8864 34.058 21.9438 32.7319C23.0011 31.4058 22.7881 29.6323 23.0248 28.7266C23.443 27.131 25.2499 25.8049 25.2499 25.8049C25.2499 25.8049 24.6345 25.3036 23.6324 25.3467Z" fill="#FD6F42"/>
<path d="M35.5158 20.4574C34.4426 20.5005 33.4248 20.8078 32.5094 22.8563C32.0123 23.9775 30.6078 25.2766 30.4737 26.5003C30.3395 27.7294 30.7419 28.0474 30.7419 28.0474C30.7419 28.0474 33.3143 28.387 34.3164 27.0178C35.2791 25.7079 34.9792 24.371 35.3027 23.7511C35.6262 23.1258 37.1018 20.8563 37.1018 20.8563C37.1018 20.8563 36.4548 20.4251 35.5158 20.4574Z" fill="#FD6F42"/>
<path d="M67.9146 21.293C66.7862 21.2552 65.1371 22.2094 64.0876 23.9128C63.0303 25.6163 62.3912 27.4652 62.4385 28.0097C62.4858 28.5541 66.6521 28.6188 68.1198 26.9747C69.043 25.9397 68.9956 23.1635 68.893 22.4951C68.7983 21.8213 69.0903 21.3307 67.9146 21.293Z" fill="#FF6E45"/>
<path d="M80.4369 26.4949C79.4664 26.6027 77.1781 26.9855 75.3317 29.7077C74.1797 31.4058 73.8325 33.0391 74.6689 33.2763C75.5053 33.5135 77.7857 33.7507 78.8272 32.8613C79.8688 31.9718 81.0208 29.5514 81.2812 28.3439C81.5337 27.1472 81.7073 26.3548 80.4369 26.4949Z" fill="#FF6E45"/>
<path d="M63.5748 40.7208C64.8215 41.497 67.1966 40.7639 68.0487 40.0739C69.3507 39.012 70.4396 36.791 70.4948 35.2385C70.5343 34.1119 70.913 33.4758 69.4691 33.5297C68.9719 33.5513 67.6069 33.7184 66.0287 35.314C64.7741 36.5754 64.0561 37.5727 63.6379 38.8071C63.2828 39.8313 63.2118 40.4944 63.5748 40.7208Z" fill="#FF6E45"/>
<path d="M52.2439 34.8558C51.4391 34.8342 49.9083 35.1576 48.3302 36.9419C46.7442 38.7262 44.9451 41.6102 45.7184 42.4997C46.4996 43.3891 48.4091 43.4862 50.3581 42.9363C52.2992 42.3865 53.6327 40.4674 53.7432 39.6912C53.8536 38.9149 54.6032 35.5943 53.9641 35.2709C53.325 34.9528 52.9383 34.8773 52.2439 34.8558Z" fill="#FF6E45"/>
<path d="M82.2993 14.0318C82.2993 21.5409 64.7348 28.1984 51.0445 28.1984C37.3543 28.1984 19.9397 21.1367 19.9397 13.6275C19.9397 6.11837 37.1097 0.140167 50.792 0.140167C64.4744 0.140167 82.2993 6.52267 82.2993 14.0318Z" fill="url(#paint1_radial_106_2438)"/>
<path d="M57.4359 16.7756C57.712 16.5115 62.912 16.808 63.3775 16.8888C63.5984 16.9266 63.5432 30.4732 63.267 30.5864C63.0303 30.6834 62.0992 31.271 60.3238 31.271C58.5484 31.271 57.5463 30.8559 57.2149 30.6996C56.8835 30.5487 57.1597 17.0398 57.4359 16.7756Z" fill="#FEA8A8"/>
<path d="M47.8882 20.1178C47.6752 20.2418 47.612 33.3249 47.7777 33.4381C47.9434 33.5513 49.056 34.2359 51.2181 34.1981C53.388 34.1604 54.3822 33.6267 54.5479 33.5135C54.7136 33.4003 54.6584 20.1178 54.4927 20.0424C54.327 19.9615 48.2196 19.9238 47.8882 20.1178Z" fill="#EC7FAE"/>
<path d="M38.5536 17.3093C38.2853 17.4171 38.2774 30.705 38.3879 30.8182C38.4984 30.9314 40.1081 31.3141 41.6073 31.3141C43.1065 31.3141 44.5505 31.0877 44.7162 30.9745C44.8819 30.8613 44.7714 17.4656 44.6057 17.3147C44.44 17.1637 38.8298 17.1961 38.5536 17.3093Z" fill="#93C7EE"/>
<path d="M51.2732 8.08594C51.6046 8.08594 52.0544 9.87023 52.6619 10.8945C53.2695 11.9187 55.5499 14.463 54.6583 16.6624C53.6877 19.072 48.188 19.541 46.9965 16.3983C46.1601 14.1989 48.9928 11.9187 49.7187 10.8945C50.2158 10.1883 51.0444 8.08594 51.2732 8.08594Z" fill="url(#paint2_radial_106_2438)"/>
<path d="M60.2133 5.31516C60.2133 5.31516 59.3926 7.87031 58.3826 8.95922C56.9387 10.5171 56.0233 12.6464 57.1596 14.3876C58.6036 16.587 64.3874 16.4737 64.49 12.7165C64.5452 10.7435 63.2827 9.69773 62.3832 8.58187C61.7677 7.8218 60.5999 5.39062 60.2133 5.31516Z" fill="url(#paint3_radial_106_2438)"/>
<path d="M41.8282 5.73563C41.8282 5.73563 40.329 8.28 39.3822 9.22875C38.4353 10.1775 36.7546 12.4146 37.7172 14.1989C38.885 16.3605 44.0534 16.6193 45.0476 13.7838C45.7104 11.8863 44.2665 10.447 43.2722 8.88914C42.6489 7.90805 41.8282 5.73563 41.8282 5.73563Z" fill="url(#paint4_radial_106_2438)"/>
<defs>
<radialGradient id="paint0_radial_106_2438" cx="0" cy="0" r="1" gradientUnits="userSpaceOnUse" gradientTransform="translate(51.5385 33.8127) rotate(91.6353) scale(24.6861 78.6288)">
<stop offset="0.445" stop-color="#FEEAC9"/>
<stop offset="0.565" stop-color="#FEE7C2"/>
<stop offset="0.741" stop-color="#FEDEAE"/>
<stop offset="0.952" stop-color="#FFCF8D"/>
<stop offset="1" stop-color="#FFCB85"/>
</radialGradient>
<radialGradient id="paint1_radial_106_2438" cx="0" cy="0" r="1" gradientUnits="userSpaceOnUse" gradientTransform="translate(51.1242 14.1686) scale(30.7924 12.9521)">
<stop offset="0.034" stop-color="#FFE265" stop-opacity="0.7"/>
<stop offset="0.112" stop-color="#FFE575" stop-opacity="0.643"/>
<stop offset="0.417" stop-color="#FFF0B0" stop-opacity="0.422"/>
<stop offset="0.677" stop-color="#FFF8DB" stop-opacity="0.234"/>
<stop offset="0.88" stop-color="#FFFDF5" stop-opacity="0.087"/>
<stop offset="1" stop-color="white" stop-opacity="0"/>
</radialGradient>
<radialGradient id="paint2_radial_106_2438" cx="0" cy="0" r="1" gradientUnits="userSpaceOnUse" gradientTransform="translate(51.2172 19.3944) scale(15.3299 10.4729)">
<stop offset="0.17" stop-color="#FF9616"/>
<stop offset="0.654" stop-color="#FFD429"/>
</radialGradient>
<radialGradient id="paint3_radial_106_2438" cx="0" cy="0" r="1" gradientUnits="userSpaceOnUse" gradientTransform="translate(60.925 16.6177) scale(15.0269 10.2659)">
<stop offset="0.17" stop-color="#FF9616"/>
<stop offset="0.654" stop-color="#FFD429"/>
</radialGradient>
<radialGradient id="paint4_radial_106_2438" cx="0" cy="0" r="1" gradientUnits="userSpaceOnUse" gradientTransform="translate(41.6799 16.615) scale(14.8762 10.1629)">
<stop offset="0.17" stop-color="#FF9616"/>
<stop offset="0.654" stop-color="#FFD429"/>
</radialGradient>
</defs>
</svg>
