<svg width="26" height="24" viewBox="0 0 26 24" fill="currentColor" xmlns="http://www.w3.org/2000/svg">
<path fill-rule="evenodd" clip-rule="evenodd" d="M3.07099 21.0213C3.07099 22.6664 4.4046 24 6.0497 24H19.9503C21.5954 24 22.929 22.6664 22.929 21.0213V9.10647H20.9432V21.0213C20.9432 21.5697 20.4987 22.0142 19.9503 22.0142H6.0497C5.50133 22.0142 5.0568 21.5697 5.0568 21.0213V9.10647H3.07099V21.0213Z" fill="#E78182"/>
<path fill-rule="evenodd" clip-rule="evenodd" d="M13.7021 2.27662C13.3143 1.88887 12.6857 1.88887 12.2979 2.27662L1.78727 12.7873C1.39952 13.175 0.770852 13.175 0.383099 12.7873C-0.00465294 12.3995 -0.00465294 11.7708 0.383099 11.3831L10.8937 0.872443C12.057 -0.290814 13.943 -0.290814 15.1063 0.872443L25.6169 11.3831C26.0047 11.7708 26.0047 12.3995 25.6169 12.7873C25.2292 13.175 24.6005 13.175 24.2127 12.7873L13.7021 2.27662Z" fill="#E78182"/>
</svg>
